<svg width="400" height="225" viewBox="0 0 400 225" fill="none" xmlns="http://www.w3.org/2000/svg">
  <!-- Background -->
  <rect width="400" height="225" fill="#f8fafc"/>
  
  <!-- Dashboard Container -->
  <rect x="20" y="20" width="360" height="185" rx="12" fill="white" stroke="#e2e8f0" stroke-width="2"/>
  
  <!-- Header -->
  <rect x="30" y="30" width="120" height="12" rx="6" fill="#e2e8f0"/>
  
  <!-- Metrics Cards -->
  <rect x="30" y="55" width="80" height="60" rx="8" fill="#f1f5f9" stroke="#e2e8f0" stroke-width="1"/>
  <rect x="35" y="60" width="30" height="8" rx="4" fill="#cbd5e1"/>
  <rect x="35" y="75" width="50" height="12" rx="4" fill="#3b82f6"/>
  <rect x="35" y="92" width="40" height="6" rx="3" fill="#94a3b8"/>
  
  <rect x="130" y="55" width="80" height="60" rx="8" fill="#f1f5f9" stroke="#e2e8f0" stroke-width="1"/>
  <rect x="135" y="60" width="30" height="8" rx="4" fill="#cbd5e1"/>
  <rect x="135" y="75" width="50" height="12" rx="4" fill="#10b981"/>
  <rect x="135" y="92" width="40" height="6" rx="3" fill="#94a3b8"/>
  
  <rect x="230" y="55" width="80" height="60" rx="8" fill="#f1f5f9" stroke="#e2e8f0" stroke-width="1"/>
  <rect x="235" y="60" width="30" height="8" rx="4" fill="#cbd5e1"/>
  <rect x="235" y="75" width="50" height="12" rx="4" fill="#f59e0b"/>
  <rect x="235" y="92" width="40" height="6" rx="3" fill="#94a3b8"/>
  
  <!-- Chart Area -->
  <rect x="30" y="130" width="340" height="65" rx="8" fill="#f8fafc" stroke="#e2e8f0" stroke-width="1"/>
  
  <!-- Chart Bars -->
  <rect x="50" y="170" width="20" height="20" rx="2" fill="#3b82f6"/>
  <rect x="80" y="160" width="20" height="30" rx="2" fill="#3b82f6"/>
  <rect x="110" y="150" width="20" height="40" rx="2" fill="#3b82f6"/>
  <rect x="140" y="165" width="20" height="25" rx="2" fill="#3b82f6"/>
  <rect x="170" y="155" width="20" height="35" rx="2" fill="#3b82f6"/>
  <rect x="200" y="145" width="20" height="45" rx="2" fill="#3b82f6"/>
  <rect x="230" y="150" width="20" height="40" rx="2" fill="#3b82f6"/>
  <rect x="260" y="160" width="20" height="30" rx="2" fill="#3b82f6"/>
  
  <!-- Chart Line -->
  <polyline points="50,180 80,170 110,160 140,175 170,165 200,155 230,160 260,170" 
            fill="none" stroke="#10b981" stroke-width="2" stroke-linecap="round" stroke-linejoin="round"/>
  
  <!-- X-axis Labels -->
  <rect x="45" y="190" width="15" height="4" rx="2" fill="#94a3b8"/>
  <rect x="105" y="190" width="15" height="4" rx="2" fill="#94a3b8"/>
  <rect x="195" y="190" width="15" height="4" rx="2" fill="#94a3b8"/>
</svg>






















